<?xml version="1.0" encoding="UTF-8"?>
<!DOCTYPE svg PUBLIC "-//W3C//DTD SVG 1.1//EN" "http://www.w3.org/Graphics/SVG/1.1/DTD/svg11.dtd">
<svg xmlns="http://www.w3.org/2000/svg" version="1.1" width="1039px" height="397px" style="shape-rendering:geometricPrecision; text-rendering:geometricPrecision; image-rendering:optimizeQuality; fill-rule:evenodd; clip-rule:evenodd" xmlns:xlink="http://www.w3.org/1999/xlink">
<g><path style="opacity:1" fill="#fefeff" d="M -0.5,-0.5 C 345.833,-0.5 692.167,-0.5 1038.5,-0.5C 1038.5,131.833 1038.5,264.167 1038.5,396.5C 692.167,396.5 345.833,396.5 -0.5,396.5C -0.5,264.167 -0.5,131.833 -0.5,-0.5 Z"/></g>
<g><path style="opacity:1" fill="#237aff" d="M 1004.5,311.5 C 953.832,311.333 903.166,311.5 852.5,312C 853.044,312.717 853.711,313.217 854.5,313.5C 879.503,336.504 905.503,358.338 932.5,379C 935.024,380.883 936.358,383.383 936.5,386.5C 888.316,371.87 839.983,357.703 791.5,344C 756.303,331.696 720.637,321.029 684.5,312C 465.5,311.667 246.5,311.333 27.5,311C 22.4857,308.158 18.9857,303.991 17,298.5C 16.3333,209.833 16.3333,121.167 17,32.5C 19.0055,25.9821 23.1722,21.4821 29.5,19C 354.833,18.3333 680.167,18.3333 1005.5,19C 1011.67,21.1667 1015.83,25.3333 1018,31.5C 1018.67,120.833 1018.67,210.167 1018,299.5C 1015.82,306.185 1011.32,310.185 1004.5,311.5 Z"/></g>
<g><path style="opacity:1" fill="#fdfefe" d="M 51.5,53.5 C 362.167,53.5 672.833,53.5 983.5,53.5C 983.5,128.167 983.5,202.833 983.5,277.5C 672.833,277.5 362.167,277.5 51.5,277.5C 51.5,202.833 51.5,128.167 51.5,53.5 Z"/></g>
<g><path style="opacity:1" fill="#247aff" d="M 854.5,67.5 C 895.214,64.2717 926.047,79.9384 947,114.5C 964.78,150.353 961.78,184.353 938,216.5C 908.607,248.724 873.107,257.891 831.5,244C 791.755,224.695 772.922,192.862 775,148.5C 780.514,112.98 799.681,87.8135 832.5,73C 839.812,70.5053 847.145,68.6719 854.5,67.5 Z"/></g>
<g><path style="opacity:1" fill="#237aff" d="M 321.5,69.5 C 368.822,66.051 402.322,85.7177 422,128.5C 434.654,168.86 425.488,203.36 394.5,232C 365.809,254.001 334.476,258.668 300.5,246C 257.457,224.422 239.29,189.589 246,141.5C 253.624,110.878 271.791,89.0443 300.5,76C 307.516,73.5085 314.516,71.3418 321.5,69.5 Z"/></g>
<g><path style="opacity:1" fill="#247aff" d="M 450.5,73.5 C 461.838,73.3335 473.172,73.5001 484.5,74C 509.722,108.889 534.555,144.056 559,179.5C 559.333,144.5 559.667,109.5 560,74.5C 572.137,73.1745 584.303,73.1745 596.5,74.5C 597.667,131.83 597.833,189.164 597,246.5C 596.5,247 596,247.5 595.5,248C 583.833,248.667 572.167,248.667 560.5,248C 535.297,212.428 510.463,176.595 486,140.5C 485.667,162.5 485.333,184.5 485,206.5C 473.333,207.833 461.667,207.833 450,206.5C 449.173,162.096 449.339,117.762 450.5,73.5 Z"/></g>
<g><path style="opacity:1" fill="#237afe" d="M 624.5,73.5 C 636.414,73.1785 648.247,73.5118 660,74.5C 671.333,104.5 682.667,134.5 694,164.5C 700.667,145.167 707.333,125.833 714,106.5C 714.5,106 715,105.5 715.5,105C 727.167,104.333 738.833,104.333 750.5,105C 752.396,106.808 752.896,108.975 752,111.5C 733.829,156.684 715.662,201.85 697.5,247C 694.621,247.957 692.121,247.457 690,245.5C 667.833,189 645.667,132.5 623.5,76C 623.743,75.0979 624.077,74.2646 624.5,73.5 Z"/></g>
<g><path style="opacity:1" fill="#237afe" d="M 178.5,73.5 C 193.519,73.4054 208.519,73.9054 223.5,75C 224.701,75.9025 225.535,77.0692 226,78.5C 226.667,87.1667 226.667,95.8333 226,104.5C 225.5,105 225,105.5 224.5,106C 205.803,106.112 187.137,106.778 168.5,108C 147.261,114.239 133.761,128.073 128,149.5C 122.817,178.305 133.317,198.805 159.5,211C 166.74,212.653 174.073,213.653 181.5,214C 195.167,214.333 208.833,214.667 222.5,215C 223.652,225.09 223.819,235.256 223,245.5C 222.5,246 222,246.5 221.5,247C 201.5,247.667 181.5,247.667 161.5,247C 139.205,243.442 120.705,233.275 106,216.5C 84.1007,182.281 82.7673,147.281 102,111.5C 111.232,96.6294 124.065,86.1294 140.5,80C 153.136,76.8433 165.803,74.6767 178.5,73.5 Z"/></g>
<g><path style="opacity:1" fill="#fefeff" d="M 858.5,99.5 C 884.554,97.9438 904.72,107.944 919,129.5C 933.6,160.265 927.766,186.432 901.5,208C 887.127,217.094 871.46,220.427 854.5,218C 819.625,207.437 803.792,183.937 807,147.5C 812.319,127.186 824.486,112.686 843.5,104C 848.535,102.151 853.535,100.651 858.5,99.5 Z"/></g>
<g><path style="opacity:1" fill="#fefeff" d="M 327.5,100.5 C 362.127,99.6486 384.627,115.649 395,148.5C 398.692,183.632 383.858,206.799 350.5,218C 317.094,224.215 293.26,212.048 279,181.5C 269.265,147.811 279.765,122.645 310.5,106C 316.127,103.623 321.793,101.79 327.5,100.5 Z"/></g>
<g><path style="opacity:1" fill="#8ebcff" d="M 1004.5,311.5 C 954.5,312.167 904.5,312.833 854.5,313.5C 853.711,313.217 853.044,312.717 852.5,312C 903.166,311.5 953.832,311.333 1004.5,311.5 Z"/></g>
</svg>